<?xml version="1.0" standalone="no"?>
<!DOCTYPE svg PUBLIC "-//W3C//DTD SVG 20010904//EN"
 "http://www.w3.org/TR/2001/REC-SVG-20010904/DTD/svg10.dtd">
<svg version="1.0" xmlns="http://www.w3.org/2000/svg"
 width="128.000000pt" height="128.000000pt" viewBox="0 0 128.000000 128.000000"
 preserveAspectRatio="xMidYMid meet">
<metadata>
Created by potrace 1.14, written by Peter Selinger 2001-2017
</metadata>
<g transform="translate(0.000000,128.000000) scale(0.100000,-0.100000)"
fill="#000000" stroke="none">
<path d="M160 1240 l0 -40 -80 0 -80 0 0 -95 0 -95 80 0 c79 0 80 0 80 -25 0
-16 -6 -25 -15 -25 -11 0 -15 -11 -15 -40 0 -36 -2 -40 -25 -40 -16 0 -25 -6
-25 -15 0 -9 9 -15 25 -15 14 0 25 -4 25 -10 0 -5 -11 -10 -25 -10 -21 0 -25
-5 -25 -30 0 -25 4 -30 25 -30 l25 0 0 -145 0 -145 -65 0 -65 0 0 -95 0 -95
160 0 c136 0 160 2 160 15 0 8 7 15 15 15 12 0 15 16 15 80 l0 80 -70 0 -70 0
0 145 0 145 55 0 c54 0 55 0 55 30 0 20 5 30 15 30 13 0 15 -22 15 -135 0 -83
4 -135 10 -135 6 0 10 -11 10 -25 0 -16 6 -25 15 -25 10 0 15 -10 15 -30 0
-25 4 -30 25 -30 14 0 25 -4 25 -10 0 -6 38 -10 95 -10 57 0 95 4 95 10 0 6 7
10 15 10 8 0 15 7 15 15 0 8 5 15 10 15 6 0 10 7 10 15 0 8 7 15 15 15 8 0 15
-7 15 -15 0 -8 7 -15 15 -15 12 0 15 16 15 80 0 47 4 80 10 80 6 0 10 -7 10
-15 0 -10 10 -15 30 -15 25 0 30 -4 30 -25 0 -14 5 -25 10 -25 6 0 10 -25 10
-55 0 -30 -4 -55 -10 -55 -5 0 -10 -4 -10 -10 0 -5 18 -10 40 -10 29 0 40 -4
40 -15 0 -11 11 -15 40 -15 36 0 40 3 40 25 0 14 5 25 10 25 6 0 10 -4 10 -10
0 -5 7 -10 15 -10 12 0 15 14 15 65 0 63 -1 65 -25 65 -20 0 -25 5 -25 25 0
21 -5 25 -30 25 -28 0 -30 2 -30 40 0 38 2 40 30 40 28 0 30 2 30 40 0 36 3
40 25 40 21 0 25 5 25 30 0 25 -4 30 -25 30 -14 0 -25 5 -25 10 0 6 11 10 25
10 14 0 25 -4 25 -10 0 -5 18 -10 40 -10 38 0 40 -2 40 -30 0 -25 -4 -30 -25
-30 -20 0 -25 -5 -25 -25 0 -16 -6 -25 -15 -25 -8 0 -15 -7 -15 -15 0 -8 7
-15 15 -15 11 0 15 -11 15 -40 0 -22 5 -40 10 -40 6 0 10 7 10 15 0 8 7 15 15
15 12 0 15 14 15 65 l0 65 40 0 c38 0 40 2 40 30 0 25 4 30 25 30 14 0 25 5
25 10 0 6 7 10 15 10 10 0 15 10 15 30 0 28 -2 30 -40 30 l-40 0 0 40 0 40 40
0 c22 0 40 5 40 10 0 6 -7 10 -15 10 -8 0 -15 7 -15 15 0 8 7 15 15 15 11 0
15 11 15 40 l0 40 -40 0 -40 0 0 40 0 40 40 0 40 0 0 40 0 40 -40 0 -40 0 0
-40 c0 -36 -2 -40 -25 -40 -16 0 -25 -6 -25 -15 0 -8 -7 -15 -15 -15 -9 0 -15
-9 -15 -25 0 -22 4 -25 40 -25 l40 0 0 -65 0 -65 -40 0 -40 0 0 -40 c0 -36 -2
-40 -25 -40 -22 0 -25 4 -25 40 0 29 -4 40 -15 40 -9 0 -15 9 -15 25 0 24 -2
25 -65 25 l-65 0 0 105 0 105 25 0 c16 0 25 6 25 15 0 12 -13 15 -55 15 -42 0
-55 -3 -55 -15 0 -8 -4 -15 -10 -15 -5 0 -10 -18 -10 -40 0 -38 -2 -40 -30
-40 -30 0 -30 1 -30 55 l0 55 -40 0 -40 0 0 -40 c0 -29 4 -40 15 -40 8 0 15
-7 15 -15 0 -9 9 -15 25 -15 14 0 25 -4 25 -10 0 -5 7 -10 15 -10 8 0 15 -7
15 -15 0 -9 9 -15 25 -15 20 0 25 -5 25 -25 0 -14 -4 -25 -10 -25 -5 0 -10 -7
-10 -15 0 -10 -10 -15 -30 -15 -25 0 -30 -4 -30 -25 0 -20 -5 -25 -25 -25 -14
0 -25 5 -25 10 0 6 -7 10 -15 10 -8 0 -15 7 -15 15 0 8 -4 15 -10 15 -5 0 -10
-7 -10 -15 0 -12 -14 -15 -70 -15 -56 0 -70 3 -70 15 0 8 -4 15 -10 15 -6 0
-10 47 -10 120 l0 120 -175 0 -175 0 0 -40z m160 -55 c0 -8 7 -15 15 -15 12 0
15 -16 15 -80 l0 -80 -95 0 -95 0 0 95 0 95 80 0 c64 0 80 -3 80 -15z m560
-225 c0 -20 -5 -30 -15 -30 -10 0 -15 10 -15 30 0 20 5 30 15 30 10 0 15 -10
15 -30z m-30 -76 c0 -42 -21 -54 -94 -54 -52 0 -66 -3 -66 -15 0 -9 -9 -15
-25 -15 -16 0 -25 6 -25 15 0 9 9 15 25 15 23 0 25 4 25 40 l0 40 80 0 c79 0
80 0 80 -26z m-290 -124 c0 -5 11 -10 25 -10 16 0 25 -6 25 -15 0 -8 7 -15 15
-15 11 0 15 -11 15 -40 0 -29 4 -40 15 -40 9 0 15 -9 15 -25 0 -16 -6 -25 -15
-25 -10 0 -15 -10 -15 -30 0 -16 -5 -30 -11 -30 -14 0 -39 -25 -39 -39 0 -6
-18 -11 -40 -11 -29 0 -40 4 -40 15 0 10 -10 15 -30 15 -25 0 -30 4 -30 25 0
14 -4 25 -10 25 -5 0 -10 18 -10 40 0 22 5 40 10 40 6 0 10 7 10 15 0 11 11
15 40 15 l40 0 0 50 c0 38 4 50 15 50 8 0 15 -4 15 -10z m270 -30 c0 -38 -2
-40 -30 -40 -28 0 -30 2 -30 40 0 38 2 40 30 40 28 0 30 -2 30 -40z"/>
<path d="M30 865 c0 -8 5 -15 10 -15 6 0 10 7 10 15 0 8 -4 15 -10 15 -5 0
-10 -7 -10 -15z"/>
<path d="M1200 650 c0 -36 3 -40 25 -40 16 0 25 6 25 15 0 8 7 15 15 15 9 0
15 9 15 25 0 23 -4 25 -40 25 l-40 0 0 -40z"/>
<path d="M1150 585 c0 -14 5 -25 10 -25 6 0 10 11 10 25 0 14 -4 25 -10 25 -5
0 -10 -11 -10 -25z"/>
<path d="M690 375 c0 -22 4 -25 40 -25 36 0 40 3 40 25 0 23 -4 25 -40 25 -36
0 -40 -2 -40 -25z"/>
<path d="M1070 385 c0 -8 5 -15 10 -15 6 0 10 7 10 15 0 8 -4 15 -10 15 -5 0
-10 -7 -10 -15z"/>
<path d="M1200 375 c0 -24 -2 -25 -65 -25 l-65 0 0 -40 c0 -36 3 -40 25 -40
23 0 25 -4 25 -40 l0 -40 -40 0 c-38 0 -40 -2 -40 -30 0 -28 2 -30 40 -30 38
0 40 2 40 30 0 28 2 30 40 30 38 0 40 -2 40 -30 0 -25 -4 -30 -25 -30 -14 0
-25 -4 -25 -10 0 -5 -7 -10 -15 -10 -10 0 -15 -10 -15 -30 0 -28 -2 -30 -40
-30 -36 0 -40 -2 -40 -25 l0 -25 120 0 120 0 0 95 0 95 -40 0 -40 0 0 40 c0
36 3 40 25 40 24 0 25 2 25 65 0 63 -1 65 -25 65 -20 0 -25 -5 -25 -25z"/>
<path d="M850 310 c0 -38 2 -40 30 -40 25 0 30 4 30 25 0 16 -6 25 -15 25 -8
0 -15 7 -15 15 0 8 -7 15 -15 15 -11 0 -15 -11 -15 -40z"/>
<path d="M690 240 c0 -20 5 -30 15 -30 8 0 15 -4 15 -10 0 -5 25 -10 55 -10
54 0 55 0 55 -30 0 -27 -3 -30 -30 -30 l-30 0 0 -65 0 -65 40 0 c36 0 40 3 40
25 0 21 5 25 30 25 25 0 30 -4 30 -25 0 -22 4 -25 40 -25 36 0 40 3 40 25 0
23 -4 25 -40 25 l-40 0 0 70 0 70 -40 0 -40 0 0 40 0 40 -70 0 -70 0 0 -30z"/>
<path d="M1010 225 c0 -8 7 -15 15 -15 8 0 15 7 15 15 0 8 -7 15 -15 15 -8 0
-15 -7 -15 -15z"/>
</g>
</svg>
